# xmcd CD database file
#
# Track frame offsets:
#	150
#	11505
#	28990
#	42290
#	58307
#	84287
#	97927
#	120147
#	134282
#	150502
#	172500
#	195175
#	228140
#	238935
#	265585
#
# Disc length: 3879 seconds
#
# Revision: 0
# Processed by: cddbd v1.5.1PL0 Copyright (c) Steve Scherf et al.
# Submitted via: CDex 1.51
#
DISCID=a50f250f
DTITLE=Nina Simone - The Best Of Nina Simone
DYEAR=1900
DGENRE=Jazz
TTITLE0=Backlash Blues
TTITLE1=The House Of The Rising Sun
TTITLE2=In The Dark
TTITLE3=I Loves You Porgy
TTITLE4=Why?(The King Of Love Is Dead)
TTITLE5=Seems I'm Never Tired Lovin' You
TTITLE6=I Get Along Without You Very Well
TTITLE7=Everyone's Gone To The Moon
TTITLE8=Here Comes The Sun
TTITLE9=Just Like A Woman
TTITLE10=Mr.Bojangles
TTITLE11=Black Is The Color Of My True Love's Hair
TTITLE12=The Look Of Love
TTITLE13=The Times They Are A-Changin'
TTITLE14=I Want A Little Sugar In My Bowl
EXTD=
EXTT0=
EXTT1=
EXTT2=
EXTT3=
EXTT4=
EXTT5=
EXTT6=
EXTT7=
EXTT8=
EXTT9=
EXTT10=
EXTT11=
EXTT12=
EXTT13=
EXTT14=
PLAYORDER=
